<svg width="225" height="27" viewBox="0 0 225 27" fill="none" xmlns="http://www.w3.org/2000/svg">
<path d="M43.7902 0.94001C43.8802 0.94001 44.0102 0.96001 44.1702 1.10001C45.6502 2.44001 46.4502 7.33001 45.2402 10.49C44.5802 12.2 43.4902 13.06 41.9902 13.06C41.3502 13.06 40.7602 13 40.2502 12.88C39.2902 12.65 38.4902 11.98 38.0602 11.02C37.6002 9.98001 37.6402 8.76001 38.1902 7.77001C40.9502 2.74001 42.9402 0.95001 43.8002 0.95001L43.7902 0.94001ZM40.5802 20.4L40.2902 20.53L39.3602 25.34C39.2802 25.74 38.9302 26.04 38.5602 26.04H38.2102C37.8302 26.04 37.5002 25.78 37.4102 25.42L36.6002 21.57H34.0402C26.9302 21.57 16.4502 18.76 10.8402 17.09L10.4302 16.97L10.1702 17.31C9.39021 18.33 8.25021 19.01 7.06021 19.17L6.68021 19.22L4.45021 25.41C4.33021 25.73 4.02021 25.95 3.68021 25.95C3.25021 25.95 2.89021 25.62 2.86021 25.19L2.29021 16.79L2.23021 16.67C1.91021 16.05 1.70021 15.12 1.70021 14.3C1.70021 13.2 2.07021 12.17 2.77021 11.32L3.09021 10.93L1.10021 8.37001C1.02021 8.26001 0.980214 8.13001 1.00021 8.00001C1.01021 7.89001 1.06021 7.79001 1.12021 7.73001L1.22021 7.65001L1.30021 7.62001C1.50021 7.54001 1.74021 7.61001 1.88021 7.79001L3.94021 10.49L4.39021 10.3C4.92021 10.08 5.55021 10.08 6.27021 10.08H36.1002C36.3102 10.08 36.7202 10.05 37.1102 10C37.1702 10.38 37.2702 10.75 37.4302 11.11C37.9602 12.31 38.9702 13.16 40.2002 13.45C40.7402 13.58 41.3502 13.64 42.0102 13.64C43.7502 13.64 45.1202 12.64 45.9002 10.85C45.5702 15.85 43.8502 18.92 40.5602 20.43L40.5802 20.4ZM53.5802 2.32001L46.6402 6.97001C46.6502 4.53001 45.9702 2.08001 44.7802 1.00001C44.4402 0.70001 44.0402 0.54001 43.6102 0.54001C42.4102 0.54001 40.9602 1.82001 39.2802 4.35001C39.2802 4.29001 39.2802 4.23001 39.2802 4.17001C39.2802 1.80001 41.1702 0.0100098 43.6902 0.0100098H52.9502C53.7102 0.0100098 54.3102 0.55001 54.3302 1.26001C54.3402 1.67001 54.1602 1.94001 53.6002 2.33001L53.5802 2.32001Z" fill="#45156E"/>
<path d="M76.3038 13.1962C76.3038 17.0723 73.288 19.459 68.4128 19.459H64.2314V24.5378H60.79V6.93332H68.4128C73.2788 6.93332 76.3038 9.30155 76.3038 13.1962ZM72.8347 13.1962C72.8347 10.9852 71.2713 9.69934 68.2555 9.69934H64.2314V16.693H68.2555C71.2713 16.693 72.8347 15.4071 72.8347 13.1962Z" fill="#45156E"/>
<path d="M78.5884 16.8688V6.93332H82.0297V16.7393C82.0297 20.3564 83.7504 21.9198 86.7384 21.9198C89.7264 21.9198 91.4194 20.3564 91.4194 16.7393V6.93332H94.8052V16.8688C94.8052 22.003 91.7616 24.7876 86.7014 24.7876C81.6412 24.7876 78.5791 21.9938 78.5791 16.8688H78.5884Z" fill="#45156E"/>
<path d="M110.745 24.5378L106.961 19.385C106.721 19.4128 106.48 19.4128 106.249 19.4128H102.067V24.547H98.626V6.93332H106.249C111.115 6.93332 114.14 9.30155 114.14 13.1962C114.14 15.8604 112.706 17.8216 110.199 18.756L114.464 24.5378H110.754H110.745ZM106.082 9.69934H102.058V16.7115H106.082C109.098 16.7115 110.661 15.4071 110.661 13.1869C110.661 10.9667 109.098 9.69009 106.082 9.69009V9.69934Z" fill="#45156E"/>
<path d="M132.484 13.1962C132.484 17.0723 129.469 19.459 124.593 19.459H120.412V24.5378H116.971V6.93332H124.593C129.459 6.93332 132.484 9.30155 132.484 13.1962ZM129.015 13.1962C129.015 10.9852 127.452 9.69934 124.436 9.69934H120.412V16.693H124.436C127.452 16.693 129.015 15.4071 129.015 13.1962Z" fill="#45156E"/>
<path d="M134.918 6.93332H138.359V21.7718H148.045V24.5378H134.918V6.93332Z" fill="#45156E"/>
<path d="M163.669 21.7903V24.5285H149.774V6.93332H163.299V9.67159H153.216V14.2508H162.161V16.9428H153.216V21.7995H163.669V21.7903Z" fill="#45156E"/>
<path d="M166.5 6.93332H174.604C180.608 6.93332 184.715 10.4579 184.715 15.7402C184.715 21.0224 180.608 24.547 174.604 24.547H166.5V6.93332ZM174.437 21.7718C178.563 21.7718 181.237 19.385 181.237 15.7309C181.237 12.0768 178.563 9.69934 174.437 9.69934H169.941V21.7718H174.437Z" fill="#45156E"/>
<path d="M186.038 15.7309C186.038 10.5227 190.275 6.67429 196.02 6.67429C201.765 6.67429 206.002 10.4949 206.002 15.7309C206.002 20.9669 201.765 24.7876 196.02 24.7876C190.275 24.7876 186.038 20.9392 186.038 15.7309ZM202.532 15.7309C202.532 12.1323 199.757 9.54207 196.02 9.54207C192.282 9.54207 189.507 12.1323 189.507 15.7309C189.507 19.3295 192.282 21.9198 196.02 21.9198C199.757 21.9198 202.532 19.3295 202.532 15.7309Z" fill="#45156E"/>
<path d="M221.302 15.5366H224.559V22.5581C222.625 24.0382 219.924 24.7968 217.306 24.7968C211.561 24.7968 207.324 20.9947 207.324 15.7402C207.324 10.4857 211.561 6.68353 217.352 6.68353C220.451 6.68353 223.042 7.66413 224.79 9.55131L222.616 11.5588C221.164 10.1711 219.489 9.55131 217.509 9.55131C213.569 9.55131 210.784 12.0953 210.784 15.7402C210.784 19.385 213.559 21.929 217.482 21.929C218.805 21.929 220.1 21.6792 221.293 21.0224V15.5366H221.302Z" fill="#45156E"/>
</svg>
